{"title":"6 Ways To Die 2015 720p WEB-DL DD5.1 EN-SUB H.264-PLAYNOW","uid":12176957,"size":3409084093,"categoryP":"video","categoryS":"hd___movies","magnet":"?xt=urn:btih:f06b7d0f0618aba7c01b5546e76fa42b25195c7b&amp;dn=6+Ways+To+Die+2015+720p+WEB-DL+DD5.1+EN-SUB+H.264-PLAYNOW&amp;tr=udp%3A%2F%2Ftracker.openbittorrent.com%3A80&amp;tr=udp%3A%2F%2Fopen.demonii.com%3A1337&amp;tr=udp%3A%2F%2Ftracker.coppersurfer.tk%3A6969&amp;tr=udp%3A%2F%2Fexodus.desync.com%3A6969","seeders":1,"leechers":0,"uploader":"Mulva1989","files":2,"time":1438334334,"description":"6 Ways To Die 2015 720p WEB-DL DD5.1 EN-SUB H.264-PLAYNOW\n\nStars: Vinnie Jones, Michael Rene Walton, Vivica A. Fox\n\nSonny &quot;Sundown&quot; Garcia is the top North American narcotics distributor for the Colombian cartels. He has created the most efficient and productive distribution pipeline since the era of the Cocaine Cowboys. John Doe is a man of mystery. His identity and history are unknown. All we know is that he wants Sundown dead and six feet under. But before he does so, he wants to make Sundown feel every thing that he felt, suffer every thing that he suffered and lose everything that he lost. To exact his revenge, John Doe hires 6 contractors from the criminal underworld with individual specialties, to execute his plan. John wants 6 things taken from Sundown: his freedom, his love, his reputation, his most valuable possession, his money and finally, his life. Sundown's life is quickly and efficiently turned to a living hell. His bank account is wiped clean. His wife disappears. His loyalties are put to the test. Systematically, Sundown's entire life is being wiped out, ending with his successful assassination. This is an enemy the type of which 'Sundown' has never experienced.\n\nScreens @ &lt;a href=&quot;\nhttps://yuq.me/users/50/321/XO0rtKnbAm.jpg&quot; rel=&quot;nofollow&quot; target=&quot;_NEW&quot;&gt;\nhttps://yuq.me/users/50/321/XO0rtKnbAm.jpg&lt;/a&gt; &lt;a href=&quot;\nhttps://yuq.me/users/50/321/uEGU1HT98R.jpg&quot; rel=&quot;nofollow&quot; target=&quot;_NEW&quot;&gt;\nhttps://yuq.me/users/50/321/uEGU1HT98R.jpg&lt;/a&gt; &lt;a href=&quot;\nhttps://yuq.me/users/50/321/XwUTH30P7b.jpg&quot; rel=&quot;nofollow&quot; target=&quot;_NEW&quot;&gt;\nhttps://yuq.me/users/50/321/XwUTH30P7b.jpg&lt;/a&gt;\n\nFormat : Matroska\nFormat version : Version 4 / Version 2\nFile size : 3.17 GiB\nDuration : 1h 43mn\nOverall bit rate : 4 391 Kbps\nEncoded date : UTC 2015-07-31 05:16:41\nWriting application : mkvmerge v7.0.0 ('Where We Going') 64bit built on Jun 9 2014 15:16:27\nWriting library : libebml v1.3.0 + libmatroska v1.4.1\nDURATION : 01:40:06.700000000\nNUMBER_OF_FRAMES : 1153\nNUMBER_OF_BYTES : 41618\n_STATISTICS_WRITING_APP : mkvmerge v7.0.0 ('Where We Going') 64bit built on Jun 9 2014 15:16:27\n_STATISTICS_WRITING_DATE_UT : 2015-07-31 05:16:41\n_STATISTICS_TAGS : BPS DURATION NUMBER_OF_FRAMES NUMBER_OF_BYTES\n\nVideo\nID : 2\nFormat : AVC\nFormat/Info : Advanced Video Codec\nFormat profile : &lt;a class=&quot;__cf_email__&quot; href=&quot;/cdn-cgi/l/email-protection&quot; data-cfemail=&quot;f8b5999196b8b4cbd6c9&quot;&gt;[email&amp;#160;protected]&lt;/a&gt;&lt;script data-cfhash='f9e31' type=&quot;text/javascript&quot;&gt;\n/* &lt;![CDATA[ */!function(){try{var t=&quot;currentScript&quot;in document?document.currentScript:function(){for(var t=document.getElementsByTagName(&quot;script&quot;),e=t.length;e--;)if(t[e].getAttribute(&quot;data-cfhash&quot;))return t[e]}();if(t&amp;&amp;t.previousSibling){var e,r,n,i,c=t.previousSibling,a=c.getAttribute(&quot;data-cfemail&quot;);if(a){for(e=&quot;&quot;,r=parseInt(a.substr(0,2),16),n=2;a.length-n;n+=2)i=parseInt(a.substr(n,2),16)^r,e+=String.fromCharCode(i);e=document.createTextNode(e),c.parentNode.replaceChild(e,c)}t.parentNode.removeChild(t);}}catch(u){}}()/* ]]&gt; */&lt;/script&gt;\nFormat settings, CABAC : No\nFormat settings, ReFrames : 2 frames\nCodec ID : V_MPEG4/ISO/AVC\nDuration : 1h 43mn\nBit rate : 3 920 Kbps\nWidth : 1 280 pixels\nHeight : 536 pixels\nDisplay aspect ratio : 2.40:1\nFrame rate mode : Constant\nFrame rate : 23.976 fps\nColor space : YUV\nChroma subsampling : 4:2:0\nBit depth : 8 bits\nScan type : Progressive\nBits/(Pixel*Frame) : 0.238\nStream size : 2.83 GiB (89%)\nLanguage : English\nDefault : Yes\nForced : No\nColor primaries : BT.709\nTransfer characteristics : BT.709\nMatrix coefficients : BT.709\nColor range : Limited\n\nAudio\nID : 1\nFormat : AC-3\nFormat/Info : Audio Coding 3\nMode extension : CM (complete main)\nFormat settings, Endianness : Big\nCodec ID : A_AC3\nDuration : 1h 43mn\nBit rate mode : Constant\nBit rate : 384 Kbps\nChannel(s) : 6 channels\nChannel positions : Front: L C R, Side: L R, LFE\nSampling rate : 48.0 KHz\nBit depth : 16 bits\nCompression mode : Lossy\nStream size : 284 MiB (9%)\nLanguage : English\nDefault : Yes\nForced : No\n\nText\nID : 3\nFormat : UTF-8\nCodec ID : S_TEXT/UTF8\nCodec ID/Info : UTF-8 Plain Text\nLanguage : English\nDefault : No\nForced : No\n\nMenu\n00:00:00.000 : en:Chapter 1\n00:10:11.000 : en:Chapter 2\n00:19:31.000 : en:Chapter 3\n00:28:01.000 : en:Chapter 4\n00:35:14.000 : en:Chapter 5\n00:45:32.000 : en:Chapter 6\n01:00:18.000 : en:Chapter 7\n01:11:37.000 : en:Chapter 8\n01:20:27.000 : en:Chapter 9\n01:28:27.000 : en:Chapter 10\n01:40:40.000 : en:Chapter 11","torrent":{"xt":"urn:btih:f06b7d0f0618aba7c01b5546e76fa42b25195c7b","amp;dn":"6+Ways+To+Die+2015+720p+WEB-DL+DD5.1+EN-SUB+H.264-PLAYNOW","amp;tr":["udp%3A%2F%2Ftracker.openbittorrent.com%3A80","udp%3A%2F%2Fopen.demonii.com%3A1337","udp%3A%2F%2Ftracker.coppersurfer.tk%3A6969","udp%3A%2F%2Fexodus.desync.com%3A6969"],"infoHash":"f06b7d0f0618aba7c01b5546e76fa42b25195c7b","infoHashBuffer":{"type":"Buffer","data":[240,107,125,15,6,24,171,167,192,27,85,70,231,111,164,43,37,25,92,123]},"announce":[],"urlList":[]}}